<?xml version="1.0" encoding="utf-8"?>
<!-- Generator: Adobe Illustrator 24.3.0, SVG Export Plug-In . SVG Version: 6.00 Build 0)  -->
<svg version="1.1" id="Layer_1" xmlns="http://www.w3.org/2000/svg" xmlns:xlink="http://www.w3.org/1999/xlink" x="0px" y="0px"
	 viewBox="0 0 512 512" style="enable-background:new 0 0 512 512;" xml:space="preserve">
<style type="text/css">
	.st0{fill:#470137;}
	.st1{fill:#FF61F6;}
</style>
<g id="Layer_2_1_">
	<g id="Surfaces">
		<g id="UI_UX_Surface">
			<g id="Outline_no_shadow">
				<path class="st0" d="M90.59,6.4h330.72c50.19,0,90.64,40.56,90.64,90.64v317.91c0,50.19-40.56,90.64-90.64,90.64H90.59
					c-50.19,0-90.64-40.56-90.64-90.64V97.04C-0.05,46.86,40.51,6.4,90.59,6.4z"/>
			</g>
		</g>
	</g>
	<g id="Outlined_Mnemonics_Logos">
		<g id="Xd">
			<path class="st1" d="M269.21,137.6L205.2,243.2l68.31,112.05c0.41,0.82,0.61,1.74,0.41,2.56c-0.2,0.82-1.02,0.2-2.36,0.41h-48.85
				c-3.38,0-5.74-0.2-7.27-2.36c-4.51-9.01-9.22-17.72-13.62-26.63c-4.51-8.71-9.42-17.72-14.54-26.94
				c-5.12-9.22-10.24-18.33-15.36-27.76h-0.41c-4.51,9.22-9.42,18.33-14.34,27.55c-4.92,9.22-9.83,18.33-14.54,27.35
				c-4.92,9.01-9.83,18.13-14.75,26.94c-0.82,2.15-2.56,2.36-4.92,2.36H76.15c-0.82,0-1.54,0.41-1.54-0.61
				c-0.2-0.82,0-1.74,0.41-2.36l66.37-108.98L76.77,137.4c-0.61-0.82-0.82-1.74-0.41-2.15c0.41-0.61,1.33-0.82,2.15-0.82h48.44
				c1.02,0,2.15,0.2,2.97,0.41c0.82,0.41,1.54,1.02,2.15,1.95c4.1,9.22,8.71,18.33,13.62,27.55c5.12,9.22,10.04,18.13,15.36,27.14
				c5.12,8.91,9.83,17.92,14.34,27.14h0.41c4.51-9.42,9.22-18.54,13.83-27.55c4.71-8.91,9.63-17.92,14.54-26.94
				c4.92-8.91,9.63-18.13,14.34-26.83c0.2-0.82,0.61-1.74,1.33-2.15c0.82-0.41,1.74-0.61,2.77-0.41h45.07
				c1.02-0.2,2.15,0.41,2.36,1.54C270.14,136.27,269.62,137.19,269.21,137.6L269.21,137.6z"/>
			<path class="st1" d="M367.84,362.72c-15.77,0.2-31.55-2.97-45.88-9.63c-13.42-6.15-24.58-16.39-32.26-28.98
				c-7.89-13.01-11.78-29.19-11.78-48.65c-0.2-15.77,3.89-31.34,11.78-45.07c8.09-13.83,19.87-25.4,33.9-33.08
				c14.95-8.3,32.88-12.39,53.98-12.39c1.02,0,2.56,0,4.51,0.2s4.1,0.2,6.66,0.41v-67.39c0-1.54,0.61-2.36,2.15-2.36h43.32
				c1.02-0.2,1.95,0.61,2.15,1.54c0,0.2,0,0.41,0,0.41v203.1c0,3.89,0.2,8.09,0.41,12.8c0.41,4.51,0.61,8.71,0.82,12.39
				c0,1.54-0.61,2.77-2.15,3.38c-11.06,4.71-22.84,8.09-34.82,10.24C389.76,361.6,378.91,362.72,367.84,362.72z M388.74,320.01
				v-93.92c-1.95-0.41-3.89-0.82-5.74-1.02c-2.36-0.2-4.71-0.41-7.07-0.41c-8.3,0-16.69,1.74-24.07,5.53
				c-7.27,3.58-13.42,8.91-18.13,15.77c-4.71,6.86-7.07,15.98-7.07,27.14c-0.2,7.48,1.02,14.95,3.58,22.02
				c2.15,5.74,5.33,10.86,9.63,15.16c4.1,3.89,9.01,6.86,14.54,8.5c5.74,1.95,11.78,2.77,17.72,2.77c3.18,0,6.15-0.2,9.01-0.41
				C383.82,321.34,386.18,320.83,388.74,320.01z"/>
		</g>
	</g>
</g>
</svg>
